<svg version="1.2" xmlns="http://www.w3.org/2000/svg" viewBox="0 0 1191 1191" width="1000" height="1000"><style>.a{fill:#ebebeb}</style><path fill-rule="evenodd" d="m252 0h687c139.2 0 252 112.8 252 252v687c0 139.2-112.8 252-252 252h-687c-139.2 0-252-112.8-252-252v-687c0-139.2 112.8-252 252-252z"/><path fill-rule="evenodd" class="a" d="m1066 533.8c0 119.1-105.2 227.4-270 278.4l-490.1 151.2-161.4-337.9c-14.2-29.7-21.5-60.6-21.5-91.7 0-169.9 211.4-307.8 471.5-307.8 260.1 0 471.5 137.9 471.5 307.8z"/></svg>