<svg version="1.2" xmlns="http://www.w3.org/2000/svg" viewBox="0 0 1191 1191" width="1191" height="1191"><style>.a{fill:#ebebeb}</style><path fill-rule="evenodd" d="m252 0h687c139.2 0 252 112.8 252 252v687c0 139.2-112.8 252-252 252h-687c-139.2 0-252-112.8-252-252v-687c0-139.2 112.8-252 252-252z"/><path fill-rule="evenodd" class="a" d="m1019.9 540.1c0 107.2-94.7 204.7-243.1 250.6l-441.1 136.1-145.3-304.2c-12.8-26.7-19.4-54.5-19.4-82.5 0-153 190.3-277.1 424.5-277.1 234.1 0 424.4 124.1 424.4 277.1z"/></svg>