<svg version="1.2" xmlns="http://www.w3.org/2000/svg" viewBox="0 0 1191 1191" width="1191" height="1191"><style>.a{fill:#ebebeb}</style><path fill-rule="evenodd" d="m333 83h524c138.1 0 250 111.9 250 250v524c0 138.1-111.9 250-250 250h-524c-138.1 0-250-111.9-250-250v-524c0-138.1 111.9-250 250-250z"/><path fill-rule="evenodd" class="a" d="m924.1 572.4c0 83-73.3 158.5-188.2 194l-341.5 105.4-112.5-235.5c-9.9-20.7-15-42.2-15-63.9 0-118.4 147.3-214.5 328.6-214.5 181.3 0 328.6 96.1 328.6 214.5z"/></svg>